<svg width="23" height="22" viewBox="0 0 23 22" fill="none" xmlns="http://www.w3.org/2000/svg">
<ellipse cx="11.4136" cy="11" rx="11.4136" ry="11" fill="#FF0000"/>
<path d="M12.473 6.54545L12.293 13.1655H10.6034L10.4187 6.54545H12.473ZM11.4482 16.12C11.1435 16.12 10.8819 16.0123 10.6634 15.7969C10.4449 15.5784 10.3371 15.3168 10.3402 15.0121C10.3371 14.7105 10.4449 14.4519 10.6634 14.2365C10.8819 14.0211 11.1435 13.9134 11.4482 13.9134C11.7406 13.9134 11.9975 14.0211 12.2191 14.2365C12.4407 14.4519 12.5531 14.7105 12.5561 15.0121C12.5531 15.2152 12.4992 15.4014 12.3946 15.5707C12.293 15.7369 12.1591 15.8707 11.9929 15.9723C11.8267 16.0708 11.6451 16.12 11.4482 16.12Z" fill="white"/>
</svg>
