<svg width="52" height="52" viewBox="0 0 52 52" fill="none" xmlns="http://www.w3.org/2000/svg">
<path opacity="0.7" d="M25.9352 47.6666C37.9014 47.6666 47.6019 37.9662 47.6019 26C47.6019 14.0338 37.9014 4.33331 25.9352 4.33331C13.9691 4.33331 4.26855 14.0338 4.26855 26C4.26855 37.9662 13.9691 47.6666 25.9352 47.6666Z" fill="white"/>
<path d="M32.4353 22.165L26.1519 18.5467C24.5919 17.6367 22.7069 17.6367 21.1469 18.5467C19.5869 19.4567 18.6553 21.06 18.6553 22.88V30.1384C18.6553 31.9367 19.5869 33.5617 21.1469 34.4717C21.9269 34.9267 22.7936 35.1434 23.6386 35.1434C24.5053 35.1434 25.3503 34.9267 26.1303 34.4717L32.4136 30.8534C33.9736 29.9434 34.9053 28.34 34.9053 26.52C34.9486 24.7 34.0169 23.075 32.4353 22.165Z" fill="#FF0000"/>
</svg>
