<svg xmlns="http://www.w3.org/2000/svg" width="37.167" height="37" viewBox="0 0 37.167 37">
  <path id="Union_41" data-name="Union 41" d="M2.108,36A2.109,2.109,0,0,1,0,33.89V2.11A2.111,2.111,0,0,1,2.108,0H27.7a2.115,2.115,0,0,1,2.113,2.11V9.755a.7.7,0,0,1-1.409,0V2.11a.7.7,0,0,0-.7-.7H2.108a.7.7,0,0,0-.7.7V33.89a.706.706,0,0,0,.7.7H27.7a.7.7,0,0,0,.7-.7V28.71a.7.7,0,0,1,1.409,0v5.18A2.113,2.113,0,0,1,27.7,36ZM14.9,32.2a.7.7,0,0,1,0-1.407h3.8a.7.7,0,0,1,0,1.407Zm6.369-.1a.7.7,0,0,1-.346-.685l.622-5.58a.751.751,0,0,1,.09-.274l8.846-15.322A2.954,2.954,0,0,1,35.6,13.2L26.751,28.522a.685.685,0,0,1-.19.213L22.04,32.064a.686.686,0,0,1-.416.138A.709.709,0,0,1,21.271,32.105ZM22.5,29.979l2.361-1.737-2.033-1.174Zm.708-4.316,2.678,1.545,7.1-12.3L30.3,13.365Zm9.437-15.437a1.527,1.527,0,0,0-.941.722l-.692,1.2,2.678,1.547.694-1.2a1.554,1.554,0,0,0-.565-2.113,1.55,1.55,0,0,0-.772-.208A1.527,1.527,0,0,0,32.643,10.226ZM8.715,28.267a.7.7,0,0,1,0-1.409H18.7a.7.7,0,0,1,0,1.409Zm-3.5-.206a.711.711,0,0,1-.206-.5.7.7,0,0,1,.206-.5.7.7,0,0,1,1,0,.7.7,0,0,1,.206.5.7.7,0,0,1-1.2.5Zm3.5-3.732a.7.7,0,0,1,0-1.409H18.7a.7.7,0,0,1,0,1.409Zm-3.5-.208a.7.7,0,0,1,0-1,.7.7,0,0,1,1,0,.7.7,0,1,1-1,1Zm3.5-3.728a.7.7,0,0,1,0-1.409H18.7a.7.7,0,0,1,0,1.409Zm-3.5-.208a.7.7,0,0,1,0-1,.7.7,0,0,1,1,0,.7.7,0,1,1-1,1Zm5.329-5.146a.579.579,0,0,1-.077-.07,6.467,6.467,0,1,1,8.876,0,.579.579,0,0,1-.077.07,6.453,6.453,0,0,1-8.722,0Zm1.3-.742a5.049,5.049,0,0,0,6.116,0,3.515,3.515,0,0,0-6.116,0Zm5.589-4.77v.457a2.509,2.509,0,0,1-.529,1.547,4.891,4.891,0,0,1,2.074,1.737,5.063,5.063,0,1,0-8.15,0A4.871,4.871,0,0,1,12.9,11.531a2.507,2.507,0,0,1-.527-1.547V9.527a2.53,2.53,0,1,1,5.06,0Zm-3.655,0v.457a1.124,1.124,0,1,0,2.248,0V9.527a1.124,1.124,0,0,0-2.248,0Z" transform="translate(0.5 0.5)" stroke="rgba(0,0,0,0)" stroke-miterlimit="10" stroke-width="1"/>
</svg>
